<svg width="61" height="61" xmlns="http://www.w3.org/2000/svg"><g fill="none" fill-rule="evenodd"><rect fill="#8338EB" width="61" height="61" rx="6"/><g fill="#FFF"><path d="M25.363 41.426L21.847 45h18.306l-3.516-3.574zM16 37.91h10.605v1.758h8.79V37.91H46v-3.515H16zm9.727-8.789a4.402 4.402 0 0 0 4.305-3.516h-5.184v-5.184a4.402 4.402 0 0 0-3.516 4.306 4.4 4.4 0 0 0 4.395 4.394z"/><path d="M26.605 20.421v3.427h3.427a4.406 4.406 0 0 0-3.427-3.427z"/><path d="M16 32.637h30V15H16v17.637zm17.637-14.063h7.031v1.758h-7.031v-1.758zm0 3.516h8.789v1.758h-8.79V22.09zm0 3.515h7.031v1.758h-7.031v-1.758zm0 3.516h8.789v1.758h-8.79V29.12zm-7.91-10.547a6.16 6.16 0 0 1 6.152 6.153 6.16 6.16 0 0 1-6.152 6.152 6.16 6.16 0 0 1-6.153-6.152 6.16 6.16 0 0 1 6.153-6.153z" fill-rule="nonzero"/></g></g></svg>