<svg width="61" height="61" xmlns="http://www.w3.org/2000/svg"><g fill="none" fill-rule="evenodd"><rect fill="#1457E9" width="61" height="61" rx="6"/><g fill="#FFF"><path d="M40.727 43.363a2.637 2.637 0 0 0 5.273 0V30.121h-5.273v13.242zM20.395 22.21h14.18v3.517h-14.18zM31 38.031h3.574v1.758H31z"/><path d="M19.516 46H39.87a4.351 4.351 0 0 1-.901-2.637V16H16v26.426C16 44.359 17.582 46 19.516 46zm16.816-4.453h-7.09v-5.274h7.09v5.274zm0-7.031h-7.09v-1.758h7.09v1.758zm0-3.516h-7.09v-1.758h7.09V31zM18.637 20.453h17.695v7.031H18.637v-7.03zm0 8.79h8.847V31h-8.847v-1.758zm0 3.515h8.847v1.758h-8.847v-1.758zm0 3.515h8.847v1.758h-8.847v-1.758zm0 3.516h8.847v1.758h-8.847v-1.758z" fill-rule="nonzero"/></g></g></svg>