<svg width="61" height="61" xmlns="http://www.w3.org/2000/svg"><g fill="none" fill-rule="evenodd"><rect fill="#1BADF5" width="61" height="61" rx="6"/><path d="M41.388 15v2.18h3.57l-5.56 4.508a8.375 8.375 0 0 0-11.473.078l-.368-.298a3.27 3.27 0 0 0-3.075-4.362 3.27 3.27 0 0 0-3.074 4.362l-4.44 3.6a3.235 3.235 0 0 0-1.706-.484A3.27 3.27 0 0 0 12 27.854a3.27 3.27 0 0 0 3.262 3.272 3.27 3.27 0 0 0 3.075-4.362l4.44-3.6a3.235 3.235 0 0 0 1.706.484c.625 0 1.21-.177 1.706-.485l.368.299c-1.794 2.934-1.627 6.743.5 9.515l-1.088 1.092-1.29-1.292-8.069 8.091 4.115 4.126 8.07-8.091-1.289-1.292 1.09-1.092a8.35 8.35 0 0 0 5.108 1.737 8.35 8.35 0 0 0 5.927-2.458c2.82-2.828 3.206-7.186 1.159-10.433l6.035-4.894v4.162H49V15h-7.612zm-7.684 6.633c1.416 0 2.831.483 3.98 1.446l-2.378 1.928a3.234 3.234 0 0 0-1.602-.423c-.626 0-1.21.177-1.707.484l-2.36-1.914a6.179 6.179 0 0 1 4.067-1.52zm4.389 10.623a6.203 6.203 0 0 1-8.779 0c-1.997-2.003-2.344-5.041-1.045-7.406l2.36 1.913a3.27 3.27 0 0 0 3.075 4.362 3.27 3.27 0 0 0 3.032-4.473l2.347-1.903c1.364 2.38 1.035 5.476-.99 7.507z" fill="#FFF" fill-rule="nonzero"/></g></svg>