<svg width="61" height="61" xmlns="http://www.w3.org/2000/svg"><g fill="none" fill-rule="evenodd"><rect fill="#14C864" width="61" height="61" rx="6"/><path d="M37.308 24.259a30.58 30.58 0 0 1-5.43.621v5.236h6.18c-.057-2.062-.313-4.045-.75-5.857zM22.18 30.116c.058-2.201.332-4.325.802-6.275-1.54-.434-2.948-.995-4.17-1.67A14.98 14.98 0 0 0 16 30.117h6.18zm0 1.764H16a14.98 14.98 0 0 0 2.812 7.945c1.222-.675 2.63-1.236 4.17-1.67-.47-1.95-.745-4.073-.802-6.274zm11.346-14.92c-.538-.456-1.09-.763-1.649-.92v7.075a28.919 28.919 0 0 0 4.952-.556c-.285-.876-.617-1.7-.994-2.456-.677-1.358-1.454-2.416-2.31-3.142zM23.454 39.852c-1.286.363-2.469.82-3.507 1.363a14.95 14.95 0 0 0 6.345 4.115c-.619-.733-1.19-1.619-1.703-2.648-.433-.87-.812-1.82-1.135-2.83zm2.708-19.749c-.377.757-.709 1.58-.995 2.456 1.557.318 3.226.508 4.952.556V16.04c-.56.158-1.11.465-1.648.922-.856.726-1.633 1.784-2.31 3.142zM39.817 31.88c-.058 2.202-.332 4.326-.802 6.276 1.54.433 2.948.994 4.17 1.669a14.981 14.981 0 0 0 2.812-7.944h-6.18zm-1.275-9.735c1.287-.363 2.47-.82 3.508-1.364a14.95 14.95 0 0 0-6.345-4.115c.618.734 1.19 1.62 1.702 2.648.434.87.813 1.82 1.135 2.83zm-2.707 19.748c.377-.756.708-1.58.994-2.456a28.919 28.919 0 0 0-4.952-.556v7.076c.56-.158 1.111-.465 1.649-.921.855-.727 1.632-1.784 2.309-3.143zm3.18-18.052c.47 1.95.744 4.074.802 6.275h6.18a14.98 14.98 0 0 0-2.812-7.944c-1.222.674-2.63 1.235-4.17 1.669zm-7.138 8.039v5.236a30.5 30.5 0 0 1 5.431.622c.437-1.813.693-3.795.75-5.857h-6.18zm-1.757-1.764V24.88a30.58 30.58 0 0 1-5.432-.621c-.437 1.812-.693 3.795-.75 5.857h6.181zm-6.666-7.971a19.93 19.93 0 0 1 1.135-2.83c.513-1.03 1.084-1.915 1.702-2.649a14.95 14.95 0 0 0-6.344 4.115c1.038.544 2.22 1 3.507 1.364zm15.088 17.707a19.93 19.93 0 0 1-1.135 2.83c-.512 1.03-1.084 1.915-1.702 2.648a14.95 14.95 0 0 0 6.345-4.115c-1.039-.543-2.221-1-3.508-1.363zM30.12 31.88h-6.182c.057 2.063.313 4.045.75 5.858a30.58 30.58 0 0 1 5.431-.622v-5.235zm-1.65 13.156c.538.456 1.09.763 1.65.921v-7.076a28.919 28.919 0 0 0-4.953.556c.286.877.618 1.7.995 2.456.676 1.359 1.453 2.416 2.309 3.143z" fill="#FFF"/></g></svg>