<svg width="61" height="61" xmlns="http://www.w3.org/2000/svg"><g fill="none" fill-rule="evenodd"><rect fill="#0FD8A2" width="61" height="61" rx="6"/><g fill="#FFF"><path d="M40.082 44.061a9.95 9.95 0 0 1-.138.39 6.79 6.79 0 0 0 3.992-5.208h-3.07c-.074 1.808-.346 3.49-.784 4.818zm-8.518-28.038v4.772h4.725zm2.172 23.22h-3.07a6.79 6.79 0 0 0 3.992 5.209 9.95 9.95 0 0 1-.138-.391c-.438-1.327-.71-3.01-.784-4.818zm0-2.045c.075-1.808.346-3.49.784-4.818a9.95 9.95 0 0 1 .138-.39 6.79 6.79 0 0 0-3.992 5.208h3.07zm7.13 0h3.07a6.79 6.79 0 0 0-3.992-5.208c.047.124.093.254.138.39.438 1.328.71 3.01.784 4.818z"/><path d="M20.426 38.693v-2.045h8.278a8.818 8.818 0 0 1 .97-2.728h-9.248v-2.045h10.81a8.661 8.661 0 0 1 6.065-2.479v-6.555H29.54V15H17.05v28.295h13.107a8.83 8.83 0 0 1-1.58-4.602h-8.152zm0-11.59h13.5v2.045h-13.5v-2.046z" fill-rule="nonzero"/><path d="M37.301 31.454c-.158.1-.571.576-.95 1.866-.32 1.085-.524 2.434-.589 3.878h3.078c-.065-1.444-.268-2.793-.588-3.878-.38-1.29-.793-1.766-.95-1.866zm-.951 11.668c.38 1.29.793 1.766.951 1.865.158-.1.571-.575.951-1.865.32-1.085.523-2.435.588-3.879h-3.078c.065 1.444.268 2.794.588 3.879z"/></g></g></svg>