<svg width="61" height="61" xmlns="http://www.w3.org/2000/svg"><g fill="none" fill-rule="evenodd"><rect fill="#F06544" width="61" height="61" rx="6"/><g fill="#FFF"><path d="M45.934 40.746c-1.728.737-3.932 1.142-6.205 1.142s-4.477-.405-6.205-1.142a8.8 8.8 0 0 1-1.066-.538v1.538c0 2.228 3.77 3.243 7.271 3.243 3.502 0 7.27-1.015 7.27-3.243v-1.538a8.8 8.8 0 0 1-1.065.538zm-.675-4.75c-1.497.494-3.46.766-5.53.766-2.069 0-4.033-.272-5.53-.766a7.726 7.726 0 0 1-1.74-.802v2.53c.14.267.6.763 1.793 1.272 1.481.631 3.477.993 5.477.993 2 0 3.996-.362 5.477-.993C46.4 38.487 46.86 37.99 47 37.724v-2.53c-.488.312-1.07.58-1.741.802z"/><path d="M40.65 29.335v-6.922h-4.512a3.68 3.68 0 0 0-2.308-1.787 6.433 6.433 0 0 0-1.903-3.816 6.303 6.303 0 0 0-4.426-1.8c-1.665 0-3.237.64-4.426 1.8a6.433 6.433 0 0 0-1.902 3.816 3.704 3.704 0 0 0-2.775 3.596c0 2.043 1.641 3.705 3.66 3.705h.291v2.814h-6.301v8.55h14.446v-8.55h-6.27v-2.813h8.72c1.989 0 3.61-1.614 3.658-3.616h2.174v5.024c-3.2.144-6.318 1.019-6.318 2.753 0 1.906 3.77 2.774 7.271 2.774 3.502 0 7.271-.868 7.271-2.774 0-1.74-3.139-2.615-6.35-2.754zM24.787 32.84l1.325 1.343-2.824 2.86-2.825-2.86 1.326-1.342.561.568v-2.67h1.875v2.67l.562-.569z" fill-rule="nonzero"/><path d="M15 41.19h16.542v3.101H15z"/></g></g></svg>