<svg width="61" height="61" xmlns="http://www.w3.org/2000/svg"><g fill="none" fill-rule="evenodd"><rect fill="#ED0174" width="61" height="61" rx="6"/><g fill="#FFF"><path d="M38.969 20.332h4.758l-4.758-4.817z"/><path d="M30.18 15v17.637h14.062V22.09h-7.031V15H30.18zm8.789 8.848h1.758v1.757h-1.758v-1.757zm0 3.515h1.758v1.758h-1.758v-1.758zm-1.758 1.758h-3.516v-1.758h3.516v1.758zm0-3.516h-3.516v-1.757h3.516v1.757z" fill-rule="nonzero"/><path d="M45.455 37.536c-.895-1.178-2.65-1.271-3.834-.384l-3.354 2.516H27.543V37.91h9.95a4.402 4.402 0 0 0-4.307-3.515h-3.619l-.915-.61c-2.213-1.477-5.145-1.501-7.379-.241v9.826L29.517 45h7.577L46 38.262l-.545-.726zM16 34.395h3.516v8.789H16z"/></g></g></svg>