<svg width="61" height="61" xmlns="http://www.w3.org/2000/svg"><g fill="none" fill-rule="evenodd"><rect fill="#2D5A93" width="61" height="61" rx="6"/><g fill="#FFF"><path d="M21.888 21.273h3.862v-3.88z"/><path d="M21.375 40.668h19.25V16H27.5v7.031h-6.125v17.637zM31 21.273h5.25v1.758H31v-1.758zm-7 3.516h14v1.758H24v-1.758zm0 3.516h14v1.757H24v-1.757zm0 3.515h14v1.758H24V31.82zm0 3.575h5.25v1.757H24v-1.757z" fill-rule="nonzero"/><path d="M17 37.152h2.625v3.516H17zm25.375 0H45v3.516h-2.625zM17 42.426h28V46H17z"/></g></g></svg>